HIERARCHY
ROOT Hips
{
 OFFSET 0.000000 0.000000 0.000000
 CHANNELS 6 Xposition Yposition Zposition Yrotation Xrotation Zrotation
 JOINT Chest
 {
  OFFSET 0.000000 9.585900 0.002600
  CHANNELS 3 Yrotation Xrotation Zrotation
  JOINT Chest2
  {
   OFFSET 0.000000 9.601200 -0.005300
   CHANNELS 3 Yrotation Xrotation Zrotation
   JOINT Chest3
   {
    OFFSET 0.000000 9.561800 0.000000
    CHANNELS 3 Yrotation Xrotation Zrotation
    JOINT Chest4
    {
     OFFSET 0.000000 9.552100 0.000000
     CHANNELS 3 Yrotation Xrotation Zrotation
     JOINT Neck
     {
      OFFSET 0.000000 14.453000 0.000000
      CHANNELS 3 Yrotation Xrotation Zrotation
      JOINT Head
      {
       OFFSET 0.000000 8.936500 -0.011300
       CHANNELS 3 Yrotation Xrotation Zrotation
       End Site
       {
        OFFSET 0.000000 17.073600 -0.006000
       }
      }
     }
     JOINT RightCollar
     {
      OFFSET -2.921100 9.558500 0.000000
      CHANNELS 3 Yrotation Xrotation Zrotation
      JOINT RightShoulder
      {
       OFFSET -13.519700 0.000000 0.000000
       CHANNELS 3 Yrotation Xrotation Zrotation
       JOINT RightElbow
       {
        OFFSET 0.000000 -29.696600 0.000000
        CHANNELS 3 Yrotation Xrotation Zrotation
        JOINT RightWrist
        {
         OFFSET 0.000000 -24.004700 0.000000
         CHANNELS 3 Yrotation Xrotation Zrotation
         End Site
         {
          OFFSET 0.000000 -17.728500 0.000000
         }
        }
       }
      }
     }
     JOINT LeftCollar
     {
      OFFSET 2.921100 9.558500 0.000000
      CHANNELS 3 Yrotation Xrotation Zrotation
      JOINT LeftShoulder
      {
       OFFSET 13.519700 0.000000 0.000000
       CHANNELS 3 Yrotation Xrotation Zrotation
       JOINT LeftElbow
       {
        OFFSET 0.000000 -29.696600 0.000000
        CHANNELS 3 Yrotation Xrotation Zrotation
        JOINT LeftWrist
        {
         OFFSET 0.000000 -24.004700 0.000000
         CHANNELS 3 Yrotation Xrotation Zrotation
         End Site
         {
          OFFSET 0.000000 -17.728500 0.000000
         }
        }
       }
      }
     }
    }
   }
  }
 }
 JOINT RightHip
 {
  OFFSET -7.771700 -0.012900 -0.001300
  CHANNELS 3 Yrotation Xrotation Zrotation
  JOINT RightKnee
  {
   OFFSET 0.000000 -40.869800 0.001200
   CHANNELS 3 Yrotation Xrotation Zrotation
   JOINT RightAnkle
   {
    OFFSET 0.000000 -39.717900 0.002100
    CHANNELS 3 Yrotation Xrotation Zrotation
    JOINT RightToe
    {
     OFFSET 0.000000 -4.965400 11.033500
     CHANNELS 3 Yrotation Xrotation Zrotation
     End Site
     {
      OFFSET 0.000000 -1.423100 5.872300
     }
    }
   }
  }
 }
 JOINT LeftHip
 {
  OFFSET 7.771700 -0.012900 -0.001300
  CHANNELS 3 Yrotation Xrotation Zrotation
  JOINT LeftKnee
  {
   OFFSET 0.000000 -40.869800 0.001200
   CHANNELS 3 Yrotation Xrotation Zrotation
   JOINT LeftAnkle
   {
    OFFSET 0.000000 -39.717900 0.002100
    CHANNELS 3 Yrotation Xrotation Zrotation
    JOINT LeftToe
    {
     OFFSET 0.000000 -4.965400 11.033500
     CHANNELS 3 Yrotation Xrotation Zrotation
     End Site
     {
      OFFSET 0.000000 -1.423100 5.872300
     }
    }
   }
  }
 }
}
MOTION
Frames: 5
Frame Time: 0.008333
-25.467911 50.809481 7.395625 163.177184 -6.426125 -0.461266 3.700263 6.723754 1.050960 0.139133 0.310216 0.010058 0.256296 0.533336 0.002973 3.098739 6.414434 0.194369 2.991911 17.357571 -0.151579 5.561994 -3.489189 -1.260879 3.050063 6.275107 0.734836 -9.751665 -14.378522 -8.181129 -67.663294 -68.565201 92.320677 -3.635121 2.151565 -31.439650 -5.322116 3.419980 -0.589685 22.443207 -7.531509 1.861416 72.467443 -73.535202 -96.081967 4.539509 2.350866 16.405826 -6.255270 -73.791996 2.147755 -118.230780 84.092610 -116.121361 -2.736397 -14.239047 -1.019089 -0.288039 0.799488 -0.130720 -15.638660 -76.967415 31.479529 107.580294 78.344881 103.874983 -15.531703 -20.985972 -0.547391 -0.400535 -1.190910 -0.171943
-25.468510 50.807885 7.398206 163.192207 -6.420072 -0.465273 3.690658 6.711611 1.046118 0.142344 0.310944 0.007918 0.260299 0.528488 -0.002290 3.100137 6.419882 0.198751 2.978961 17.350424 -0.147923 5.540451 -3.504935 -1.254420 3.045837 6.264102 0.734025 -9.748027 -14.392428 -8.194687 -67.673964 -68.590630 92.382958 -3.663038 2.160777 -31.461786 -5.332368 3.410595 -0.576450 22.434709 -7.538941 1.875203 72.461571 -73.527722 -96.085467 4.531914 2.351994 16.387520 -6.281535 -73.798881 2.161462 -118.229939 84.090726 -116.120981 -2.736617 -14.242767 -1.013237 -0.290417 0.802698 -0.135710 -15.663450 -76.975128 31.491812 107.551103 78.335124 103.838548 -15.509951 -20.980820 -0.547257 -0.392548 -1.188457 -0.171979
-25.470888 50.806512 7.397471 163.248642 -6.429277 -0.459319 3.635243 6.719095 1.031220 0.144939 0.306988 0.004862 0.256935 0.533592 0.002566 3.104533 6.415095 0.190500 2.970224 17.345495 -0.146908 5.530194 -3.510659 -1.247273 3.044991 6.259328 0.734697 -9.747765 -14.395490 -8.198496 -67.677237 -68.596472 92.405191 -3.662348 2.160803 -31.455208 -5.341487 3.399694 -0.565363 22.420646 -7.558821 1.901890 72.430418 -73.506701 -96.051695 4.531552 2.357863 16.383916 -6.291455 -73.792757 2.117322 -118.225142 84.084274 -116.120187 -2.764083 -14.207761 -1.013762 -0.258048 0.765479 -0.122024 -15.626132 -76.974869 31.403767 107.550786 78.339410 103.846154 -15.556079 -21.034531 -0.550673 -0.351679 -1.132928 -0.152380
-25.474007 50.805023 7.397429 163.257768 -6.432614 -0.446681 3.626384 6.721008 1.014259 0.146950 0.304652 0.001099 0.257208 0.533663 0.002354 3.107933 6.414407 0.188144 2.958642 17.339065 -0.146919 5.532352 -3.506313 -1.237947 3.040479 6.260033 0.742463 -9.743653 -14.406175 -8.207687 -67.664481 -68.587928 92.395657 -3.661908 2.160217 -31.454388 -5.352727 3.384654 -0.554118 22.423479 -7.549648 1.916149 72.469185 -73.506568 -96.106075 4.540194 2.370679 16.397907 -6.251943 -73.792768 2.068780 -118.238865 84.080260 -116.137707 -2.762912 -14.215716 -1.007121 -0.256807 0.772397 -0.123113 -15.565652 -76.976712 31.336993 107.550351 78.347652 103.849936 -15.582879 -21.032072 -0.545446 -0.376689 -1.132826 -0.155666
-25.474139 50.803628 7.397378 163.257374 -6.439877 -0.451962 3.624989 6.722554 1.013949 0.147191 0.304720 0.000745 0.257927 0.533814 0.001760 3.113124 6.414010 0.181982 2.950625 17.334100 -0.144771 5.518371 -3.522167 -1.231863 3.042253 6.248534 0.738979 -9.744333 -14.414659 -8.213269 -67.660519 -68.586829 92.417178 -3.664371 2.156144 -31.459636 -5.354915 3.369129 -0.544416 22.417190 -7.545282 1.935614 72.506209 -73.503741 -96.150903 4.534904 2.368645 16.395412 -6.265700 -73.785767 2.086484 -118.235261 84.079174 -116.138218 -2.756305 -14.217360 -0.998445 -0.264069 0.774639 -0.126703 -15.575926 -76.971541 31.347662 107.576664 78.348619 103.878041 -15.551075 -21.037399 -0.557038 -0.337003 -1.126144 -0.150385
